<svg width="30" height="28" viewBox="0 0 30 28" fill="none" xmlns="http://www.w3.org/2000/svg">
<path d="M21.2125 17.1527H19.9243L19.4678 16.7316C21.0657 14.954 22.0278 12.6462 22.0278 10.1357C22.0278 4.53766 17.2828 0 11.4289 0C5.5751 0 0.830078 4.53766 0.830078 10.1357C0.830078 15.7337 5.5751 20.2713 11.4289 20.2713C14.0542 20.2713 16.4675 19.3513 18.3263 17.8232L18.7666 18.2598V19.4917L26.9196 27.2727L29.3491 24.9493L21.2125 17.1527ZM11.4289 17.1527C7.36875 17.1527 4.09126 14.0184 4.09126 10.1357C4.09126 6.25292 7.36875 3.11867 11.4289 3.11867C15.4891 3.11867 18.7666 6.25292 18.7666 10.1357C18.7666 14.0184 15.4891 17.1527 11.4289 17.1527Z" fill="#999999"/>
</svg>
